<svg width="192" height="374" viewBox="0 0 192 374" fill="none" xmlns="http://www.w3.org/2000/svg">
<g opacity="0.1">
<path d="M106.508 358.397C104.737 359.447 102.95 360.471 101.144 361.468C102.281 359.684 104.248 358.477 106.508 358.397Z" fill="#1A1A1A"/>
<path d="M151.887 321.51C149.022 324.637 146.058 327.673 143.001 330.612C140.913 329.514 139.478 327.337 139.448 324.813C139.404 321.148 142.339 318.141 146.004 318.097C148.528 318.067 150.739 319.449 151.887 321.51Z" fill="#1A1A1A"/>
<path d="M181.727 278.924C180.774 280.752 179.794 282.564 178.786 284.359C178.812 282.098 179.971 280.103 181.727 278.924Z" fill="#1A1A1A"/>
<path d="M-86.8277 363.727C-88.6563 362.774 -90.4684 361.794 -92.2633 360.786C-90.0022 360.812 -88.0071 361.971 -86.8277 363.727Z" fill="#1A1A1A"/>
<path d="M-129.414 333.887C-127.353 332.739 -125.971 330.528 -126.001 328.004C-126.045 324.339 -129.052 321.404 -132.717 321.448C-135.241 321.478 -137.419 322.913 -138.516 325.001C-135.577 328.058 -132.541 331.022 -129.414 333.887Z" fill="#1A1A1A"/>
<path d="M-166.301 288.508C-166.381 286.248 -167.588 284.281 -169.372 283.144C-168.375 284.949 -167.351 286.737 -166.301 288.508Z" fill="#1A1A1A"/>
<path d="M-171.631 95.1723C-169.875 93.9929 -168.716 91.9978 -168.69 89.7367C-169.698 91.5316 -170.678 93.3437 -171.631 95.1723Z" fill="#1A1A1A"/>
<path d="M-141.791 52.5864C-140.643 54.6468 -138.432 56.0292 -135.908 55.9988C-132.243 55.9548 -129.308 52.9479 -129.352 49.2828C-129.382 46.7592 -130.817 44.5815 -132.905 43.4842C-135.962 46.4234 -138.926 49.4591 -141.791 52.5864Z" fill="#1A1A1A"/>
<path d="M-96.4117 15.6991C-94.1519 15.6192 -92.1852 14.4123 -91.0484 12.6283C-92.8536 13.6249 -94.6415 14.6487 -96.4117 15.6991Z" fill="#1A1A1A"/>
<path d="M183.588 131.804C179.923 131.848 176.916 128.913 176.872 125.248C176.828 121.583 179.763 118.576 183.428 118.532C187.093 118.488 190.1 121.423 190.144 125.088C190.188 128.753 187.253 131.76 183.588 131.804Z" fill="#1A1A1A"/>
<path d="M184.066 171.622C180.401 171.666 177.395 168.73 177.35 165.065C177.306 161.4 180.242 158.393 183.907 158.349C187.572 158.305 190.579 161.24 190.623 164.906C190.667 168.571 187.732 171.577 184.066 171.622Z" fill="#1A1A1A"/>
<path d="M184.545 211.439C180.88 211.483 177.873 208.548 177.829 204.882C177.785 201.217 180.72 198.21 184.386 198.166C188.051 198.122 191.057 201.058 191.102 204.723C191.146 208.388 188.21 211.395 184.545 211.439Z" fill="#1A1A1A"/>
<path d="M185.024 251.256C181.359 251.3 178.352 248.365 178.308 244.7C178.264 241.035 181.199 238.028 184.864 237.984C188.529 237.94 191.536 240.875 191.58 244.54C191.624 248.205 188.689 251.212 185.024 251.256Z" fill="#1A1A1A"/>
<path d="M143.292 92.4655C139.627 92.5096 136.62 89.5742 136.576 85.9091C136.532 82.244 139.467 79.2372 143.132 79.1931C146.797 79.149 149.804 82.0845 149.848 85.7496C149.892 89.4146 146.957 92.4215 143.292 92.4655Z" fill="#1A1A1A"/>
<path d="M143.77 132.283C140.105 132.327 137.099 129.392 137.054 125.726C137.01 122.061 139.946 119.054 143.611 119.01C147.276 118.966 150.283 121.902 150.327 125.567C150.371 129.232 147.436 132.239 143.77 132.283Z" fill="#1A1A1A"/>
<path d="M144.249 172.1C140.584 172.144 137.577 169.209 137.533 165.544C137.489 161.879 140.424 158.872 144.09 158.828C147.755 158.784 150.761 161.719 150.806 165.384C150.85 169.049 147.914 172.056 144.249 172.1Z" fill="#1A1A1A"/>
<path d="M144.728 211.918C141.063 211.962 138.056 209.026 138.012 205.361C137.968 201.696 140.903 198.689 144.568 198.645C148.233 198.601 151.24 201.536 151.284 205.202C151.328 208.867 148.393 211.874 144.728 211.918Z" fill="#1A1A1A"/>
<path d="M145.206 251.735C141.541 251.779 138.534 248.843 138.49 245.178C138.446 241.513 141.382 238.506 145.047 238.462C148.712 238.418 151.719 241.354 151.763 245.019C151.807 248.684 148.872 251.691 145.206 251.735Z" fill="#1A1A1A"/>
<path d="M145.685 291.552C142.02 291.596 139.013 288.661 138.969 284.996C138.925 281.331 141.86 278.324 145.526 278.28C149.191 278.236 152.197 281.171 152.242 284.836C152.286 288.501 149.35 291.508 145.685 291.552Z" fill="#1A1A1A"/>
<path d="M102.996 53.1269C99.3307 53.1709 96.3239 50.2355 96.2798 46.5704C96.2357 42.9053 99.1711 39.8985 102.836 39.8544C106.501 39.8104 109.508 42.7458 109.552 46.4109C109.596 50.076 106.661 53.0828 102.996 53.1269Z" fill="#1A1A1A"/>
<path d="M103.474 92.9442C99.8094 92.9883 96.8025 90.0529 96.7585 86.3878C96.7144 82.7227 99.6498 79.7158 103.315 79.6718C106.98 79.6277 109.987 82.5631 110.031 86.2282C110.075 89.8933 107.14 92.9001 103.474 92.9442Z" fill="#1A1A1A"/>
<path d="M103.953 132.762C100.288 132.806 97.2812 129.87 97.2371 126.205C97.1931 122.54 100.128 119.533 103.794 119.489C107.459 119.445 110.465 122.38 110.51 126.046C110.554 129.711 107.618 132.717 103.953 132.762Z" fill="#1A1A1A"/>
<path d="M104.432 172.579C100.767 172.623 97.7598 169.688 97.7158 166.022C97.6717 162.357 100.607 159.351 104.272 159.306C107.937 159.262 110.944 162.198 110.988 165.863C111.032 169.528 108.097 172.535 104.432 172.579Z" fill="#1A1A1A"/>
<path d="M104.91 212.396C101.245 212.44 98.2385 209.505 98.1944 205.84C98.1504 202.175 101.086 199.168 104.751 199.124C108.416 199.08 111.423 202.015 111.467 205.68C111.511 209.345 108.576 212.352 104.91 212.396Z" fill="#1A1A1A"/>
<path d="M105.389 252.214C101.724 252.258 98.7171 249.322 98.6731 245.657C98.629 241.992 101.564 238.985 105.23 238.941C108.895 238.897 111.901 241.832 111.946 245.497C111.99 249.163 109.054 252.169 105.389 252.214Z" fill="#1A1A1A"/>
<path d="M105.868 292.031C102.203 292.075 99.1958 289.139 99.1517 285.474C99.1077 281.809 102.043 278.802 105.708 278.758C109.373 278.714 112.38 281.65 112.424 285.315C112.468 288.98 109.533 291.987 105.868 292.031Z" fill="#1A1A1A"/>
<path d="M106.346 331.848C102.681 331.892 99.6745 328.957 99.6304 325.292C99.5863 321.627 102.522 318.62 106.187 318.576C109.852 318.532 112.859 321.467 112.903 325.132C112.947 328.797 110.011 331.804 106.346 331.848Z" fill="#1A1A1A"/>
<path d="M62.6998 13.7882C59.0347 13.8323 56.0279 10.8968 55.9838 7.23175C55.9397 3.56667 58.8752 0.559813 62.5402 0.515754C66.2053 0.471695 69.2122 3.40712 69.2562 7.0722C69.3003 10.7373 66.3649 13.7441 62.6998 13.7882Z" fill="#1A1A1A"/>
<path d="M63.1784 53.6055C59.5134 53.6496 56.5065 50.7142 56.4625 47.0491C56.4184 43.384 59.3538 40.3771 63.0189 40.3331C66.684 40.289 69.6908 43.2245 69.7349 46.8895C69.779 50.5546 66.8435 53.5615 63.1784 53.6055Z" fill="#1A1A1A"/>
<path d="M63.6571 93.4229C59.992 93.4669 56.9852 90.5315 56.9411 86.8664C56.8971 83.2013 59.8325 80.1945 63.4976 80.1504C67.1626 80.1064 70.1695 83.0418 70.2136 86.7069C70.2576 90.372 67.3222 93.3788 63.6571 93.4229Z" fill="#1A1A1A"/>
<path d="M64.1358 133.24C60.4707 133.284 57.4638 130.349 57.4198 126.684C57.3757 123.019 60.3111 120.012 63.9762 119.968C67.6413 119.924 70.6482 122.859 70.6922 126.524C70.7363 130.189 67.8008 133.196 64.1358 133.24Z" fill="#1A1A1A"/>
<path d="M64.6144 173.058C60.9493 173.102 57.9425 170.166 57.8984 166.501C57.8544 162.836 60.7898 159.829 64.4549 159.785C68.12 159.741 71.1268 162.676 71.1709 166.342C71.2149 170.007 68.2795 173.013 64.6144 173.058Z" fill="#1A1A1A"/>
<path d="M65.0931 212.875C61.428 212.919 58.4212 209.983 58.3771 206.318C58.333 202.653 61.2685 199.646 64.9335 199.602C68.5986 199.558 71.6055 202.494 71.6495 206.159C71.6936 209.824 68.7582 212.831 65.0931 212.875Z" fill="#1A1A1A"/>
<path d="M65.5717 252.692C61.9067 252.736 58.8998 249.801 58.8558 246.136C58.8117 242.471 61.7471 239.464 65.4122 239.42C69.0773 239.376 72.0841 242.311 72.1282 245.976C72.1723 249.641 69.2368 252.648 65.5717 252.692Z" fill="#1A1A1A"/>
<path d="M66.0504 292.509C62.3853 292.554 59.3785 289.618 59.3344 285.953C59.2904 282.288 62.2258 279.281 65.8909 279.237C69.5559 279.193 72.5628 282.128 72.6069 285.794C72.6509 289.459 69.7155 292.465 66.0504 292.509Z" fill="#1A1A1A"/>
<path d="M66.5291 332.327C62.864 332.371 59.8571 329.435 59.8131 325.77C59.769 322.105 62.7044 319.098 66.3695 319.054C70.0346 319.01 73.0415 321.946 73.0855 325.611C73.1296 329.276 70.1941 332.283 66.5291 332.327Z" fill="#1A1A1A"/>
<path d="M67.0077 372.144C63.3426 372.188 60.3358 369.253 60.2917 365.588C60.2477 361.923 63.1831 358.916 66.8482 358.872C70.5132 358.828 73.5201 361.763 73.5642 365.428C73.6082 369.093 70.6728 372.1 67.0077 372.144Z" fill="#1A1A1A"/>
<path d="M22.8825 14.2669C19.2174 14.3109 16.2105 11.3755 16.1665 7.71041C16.1224 4.04533 19.0578 1.03847 22.7229 0.994413C26.388 0.950354 29.3948 3.88577 29.4389 7.55086C29.483 11.2159 26.5475 14.2228 22.8825 14.2669Z" fill="#1A1A1A"/>
<path d="M23.3611 54.0842C19.696 54.1283 16.6892 51.1928 16.6451 47.5277C16.6011 43.8627 19.5365 40.8558 23.2016 40.8117C26.8666 40.7677 29.8735 43.7031 29.9176 47.3682C29.9616 51.0333 27.0262 54.0401 23.3611 54.0842Z" fill="#1A1A1A"/>
<path d="M23.8398 93.9015C20.1747 93.9456 17.1678 91.0102 17.1238 87.3451C17.0797 83.68 20.0151 80.6731 23.6802 80.6291C27.3453 80.585 30.3522 83.5204 30.3962 87.1855C30.4403 90.8506 27.5049 93.8575 23.8398 93.9015Z" fill="#1A1A1A"/>
<path d="M24.3184 133.719C20.6534 133.763 17.6465 130.827 17.6024 127.162C17.5584 123.497 20.4938 120.49 24.1589 120.446C27.824 120.402 30.8308 123.338 30.8749 127.003C30.9189 130.668 27.9835 133.675 24.3184 133.719Z" fill="#1A1A1A"/>
<path d="M24.7971 173.536C21.132 173.58 18.1252 170.645 18.0811 166.98C18.037 163.315 20.9725 160.308 24.6375 160.264C28.3026 160.22 31.3095 163.155 31.3535 166.82C31.3976 170.485 28.4622 173.492 24.7971 173.536Z" fill="#1A1A1A"/>
<path d="M25.2758 213.354C21.6107 213.398 18.6038 210.462 18.5598 206.797C18.5157 203.132 21.4511 200.125 25.1162 200.081C28.7813 200.037 31.7881 202.972 31.8322 206.638C31.8762 210.303 28.9408 213.309 25.2758 213.354Z" fill="#1A1A1A"/>
<path d="M25.7544 253.171C22.0893 253.215 19.0825 250.279 19.0384 246.614C18.9944 242.949 21.9298 239.942 25.5949 239.898C29.2599 239.854 32.2668 242.79 32.3108 246.455C32.3549 250.12 29.4195 253.127 25.7544 253.171Z" fill="#1A1A1A"/>
<path d="M26.2331 292.988C22.568 293.032 19.5611 290.097 19.5171 286.432C19.473 282.767 22.4084 279.76 26.0735 279.716C29.7386 279.672 32.7454 282.607 32.7895 286.272C32.8336 289.937 29.8982 292.944 26.2331 292.988Z" fill="#1A1A1A"/>
<path d="M26.7117 332.805C23.0467 332.85 20.0398 329.914 19.9957 326.249C19.9517 322.584 22.8871 319.577 26.5522 319.533C30.2173 319.489 33.2241 322.424 33.2682 326.09C33.3122 329.755 30.3768 332.761 26.7117 332.805Z" fill="#1A1A1A"/>
<path d="M27.1904 372.623C23.5253 372.667 20.5185 369.731 20.4744 366.066C20.4303 362.401 23.3658 359.394 27.0308 359.35C30.6959 359.306 33.7028 362.242 33.7468 365.907C33.7909 369.572 30.8555 372.579 27.1904 372.623Z" fill="#1A1A1A"/>
<path d="M-16.9349 14.7455C-20.6 14.7896 -23.6068 11.8542 -23.6509 8.18907C-23.6949 4.52399 -20.7595 1.51713 -17.0944 1.47307C-13.4293 1.42901 -10.4225 4.36443 -10.3784 8.02952C-10.3344 11.6946 -13.2698 14.7015 -16.9349 14.7455Z" fill="#1A1A1A"/>
<path d="M-16.4562 54.5629C-20.1213 54.6069 -23.1282 51.6715 -23.1722 48.0064C-23.2163 44.3413 -20.2809 41.3345 -16.6158 41.2904C-12.9507 41.2463 -9.94384 44.1818 -9.89978 47.8469C-9.85572 51.5119 -12.7911 54.5188 -16.4562 54.5629Z" fill="#1A1A1A"/>
<path d="M-15.9775 94.3802C-19.6426 94.4242 -22.6495 91.4888 -22.6936 87.8237C-22.7376 84.1587 -19.8022 81.1518 -16.1371 81.1077C-12.472 81.0637 -9.46518 83.9991 -9.42112 87.6642C-9.37706 91.3293 -12.3125 94.3361 -15.9775 94.3802Z" fill="#1A1A1A"/>
<path d="M-15.4989 134.198C-19.164 134.242 -22.1708 131.306 -22.2149 127.641C-22.259 123.976 -19.3235 120.969 -15.6584 120.925C-11.9934 120.881 -8.98652 123.816 -8.94246 127.482C-8.8984 131.147 -11.8338 134.153 -15.4989 134.198Z" fill="#1A1A1A"/>
<path d="M-15.0202 174.015C-18.6853 174.059 -21.6922 171.123 -21.7362 167.458C-21.7803 163.793 -18.8449 160.786 -15.1798 160.742C-11.5147 160.698 -8.50786 163.634 -8.4638 167.299C-8.41974 170.964 -11.3552 173.971 -15.0202 174.015Z" fill="#1A1A1A"/>
<path d="M-14.5416 213.832C-18.2067 213.876 -21.2135 210.941 -21.2576 207.276C-21.3016 203.611 -18.3662 200.604 -14.7011 200.56C-11.036 200.516 -8.0292 203.451 -7.98514 207.116C-7.94108 210.781 -10.8765 213.788 -14.5416 213.832Z" fill="#1A1A1A"/>
<path d="M-14.0629 253.65C-17.728 253.694 -20.7349 250.758 -20.7789 247.093C-20.823 243.428 -17.8876 240.421 -14.2225 240.377C-10.5574 240.333 -7.55054 243.268 -7.50648 246.933C-7.46242 250.599 -10.3978 253.605 -14.0629 253.65Z" fill="#1A1A1A"/>
<path d="M-13.5843 293.467C-17.2493 293.511 -20.2562 290.575 -20.3003 286.91C-20.3443 283.245 -17.4089 280.238 -13.7438 280.194C-10.0787 280.15 -7.07188 283.086 -7.02782 286.751C-6.98376 290.416 -9.91918 293.423 -13.5843 293.467Z" fill="#1A1A1A"/>
<path d="M-13.1056 333.284C-16.7707 333.328 -19.7776 330.393 -19.8216 326.728C-19.8657 323.063 -16.9302 320.056 -13.2651 320.012C-9.60007 319.968 -6.59322 322.903 -6.54916 326.568C-6.5051 330.233 -9.44052 333.24 -13.1056 333.284Z" fill="#1A1A1A"/>
<path d="M-12.6269 373.101C-16.292 373.146 -19.2989 370.21 -19.343 366.545C-19.387 362.88 -16.4516 359.873 -12.7865 359.829C-9.12141 359.785 -6.11456 362.72 -6.0705 366.385C-6.02644 370.051 -8.96186 373.057 -12.6269 373.101Z" fill="#1A1A1A"/>
<path d="M-56.7522 15.2242C-60.4173 15.2682 -63.4242 12.3328 -63.4682 8.66773C-63.5123 5.00265 -60.5768 1.99579 -56.9118 1.95173C-53.2467 1.90767 -50.2398 4.84309 -50.1958 8.50818C-50.1517 12.1733 -53.0871 15.1801 -56.7522 15.2242Z" fill="#1A1A1A"/>
<path d="M-56.2736 55.0415C-59.9386 55.0856 -62.9455 52.1502 -62.9896 48.4851C-63.0336 44.82 -60.0982 41.8131 -56.4331 41.7691C-52.768 41.725 -49.7612 44.6604 -49.7171 48.3255C-49.673 51.9906 -52.6085 54.9975 -56.2736 55.0415Z" fill="#1A1A1A"/>
<path d="M-55.7949 94.8588C-59.46 94.9029 -62.4669 91.9675 -62.5109 88.3024C-62.555 84.6373 -59.6195 81.6305 -55.9544 81.5864C-52.2894 81.5423 -49.2825 84.4778 -49.2384 88.1429C-49.1944 91.8079 -52.1298 94.8148 -55.7949 94.8588Z" fill="#1A1A1A"/>
<path d="M-55.3162 134.676C-58.9813 134.72 -61.9882 131.785 -62.0323 128.12C-62.0763 124.455 -59.1409 121.448 -55.4758 121.404C-51.8107 121.36 -48.8038 124.295 -48.7598 127.96C-48.7157 131.625 -51.6512 134.632 -55.3162 134.676Z" fill="#1A1A1A"/>
<path d="M-54.8376 174.494C-58.5027 174.538 -61.5095 171.602 -61.5536 167.937C-61.5977 164.272 -58.6622 161.265 -54.9971 161.221C-51.332 161.177 -48.3252 164.112 -48.2811 167.778C-48.2371 171.443 -51.1725 174.449 -54.8376 174.494Z" fill="#1A1A1A"/>
<path d="M-54.3589 214.311C-58.024 214.355 -61.0309 211.419 -61.0749 207.754C-61.119 204.089 -58.1835 201.082 -54.5185 201.038C-50.8534 200.994 -47.8465 203.93 -47.8025 207.595C-47.7584 211.26 -50.6938 214.267 -54.3589 214.311Z" fill="#1A1A1A"/>
<path d="M-53.8803 254.128C-57.5453 254.172 -60.5522 251.237 -60.5963 247.572C-60.6403 243.907 -57.7049 240.9 -54.0398 240.856C-50.3747 240.812 -47.3679 243.747 -47.3238 247.412C-47.2798 251.077 -50.2152 254.084 -53.8803 254.128Z" fill="#1A1A1A"/>
<path d="M-53.4016 293.945C-57.0667 293.99 -60.0736 291.054 -60.1176 287.389C-60.1617 283.724 -57.2262 280.717 -53.5612 280.673C-49.8961 280.629 -46.8892 283.564 -46.8452 287.229C-46.8011 290.895 -49.7365 293.901 -53.4016 293.945Z" fill="#1A1A1A"/>
<path d="M-52.9229 333.763C-56.588 333.807 -59.5949 330.871 -59.639 327.206C-59.683 323.541 -56.7476 320.534 -53.0825 320.49C-49.4174 320.446 -46.4106 323.382 -46.3665 327.047C-46.3224 330.712 -49.2579 333.719 -52.9229 333.763Z" fill="#1A1A1A"/>
<path d="M-52.4443 373.58C-56.1094 373.624 -59.1162 370.689 -59.1603 367.024C-59.2044 363.359 -56.2689 360.352 -52.6038 360.308C-48.9388 360.264 -45.9319 363.199 -45.8878 366.864C-45.8438 370.529 -48.7792 373.536 -52.4443 373.58Z" fill="#1A1A1A"/>
<path d="M-96.0909 55.5202C-99.756 55.5642 -102.763 52.6288 -102.807 48.9637C-102.851 45.2986 -99.9155 42.2918 -96.2505 42.2477C-92.5854 42.2037 -89.5785 45.1391 -89.5345 48.8042C-89.4904 52.4693 -92.4258 55.4761 -96.0909 55.5202Z" fill="#1A1A1A"/>
<path d="M-95.6122 95.3375C-99.2773 95.3816 -102.284 92.4462 -102.328 88.7811C-102.372 85.116 -99.4369 82.1091 -95.7718 82.0651C-92.1067 82.021 -89.0999 84.9564 -89.0558 88.6215C-89.0117 92.2866 -91.9472 95.2934 -95.6122 95.3375Z" fill="#1A1A1A"/>
<path d="M-95.1336 135.155C-98.7987 135.199 -101.806 132.263 -101.85 128.598C-101.894 124.933 -98.9582 121.926 -95.2931 121.882C-91.6281 121.838 -88.6212 124.774 -88.5771 128.439C-88.5331 132.104 -91.4685 135.111 -95.1336 135.155Z" fill="#1A1A1A"/>
<path d="M-94.6549 174.972C-98.32 175.016 -101.327 172.081 -101.371 168.416C-101.415 164.751 -98.4796 161.744 -94.8145 161.7C-91.1494 161.656 -88.1425 164.591 -88.0985 168.256C-88.0544 171.921 -90.9898 174.928 -94.6549 174.972Z" fill="#1A1A1A"/>
<path d="M-94.1763 214.79C-97.8413 214.834 -100.848 211.898 -100.892 208.233C-100.936 204.568 -98.0009 201.561 -94.3358 201.517C-90.6707 201.473 -87.6639 204.408 -87.6198 208.073C-87.5758 211.739 -90.5112 214.745 -94.1763 214.79Z" fill="#1A1A1A"/>
<path d="M-93.6976 254.607C-97.3627 254.651 -100.37 251.715 -100.414 248.05C-100.458 244.385 -97.5222 241.378 -93.8572 241.334C-90.1921 241.29 -87.1852 244.226 -87.1412 247.891C-87.0971 251.556 -90.0325 254.563 -93.6976 254.607Z" fill="#1A1A1A"/>
<path d="M-93.2189 294.424C-96.884 294.468 -99.8909 291.533 -99.9349 287.868C-99.979 284.203 -97.0436 281.196 -93.3785 281.152C-89.7134 281.108 -86.7066 284.043 -86.6625 287.708C-86.6185 291.373 -89.5539 294.38 -93.2189 294.424Z" fill="#1A1A1A"/>
<path d="M-92.7403 334.241C-96.4054 334.286 -99.4122 331.35 -99.4563 327.685C-99.5003 324.02 -96.5649 321.013 -92.8998 320.969C-89.2348 320.925 -86.2279 323.86 -86.1839 327.525C-86.1398 331.191 -89.0752 334.197 -92.7403 334.241Z" fill="#1A1A1A"/>
<path d="M-135.43 95.8162C-139.095 95.8602 -142.102 92.9248 -142.146 89.2597C-142.19 85.5946 -139.254 82.5878 -135.589 82.5437C-131.924 82.4997 -128.917 85.4351 -128.873 89.1002C-128.829 92.7653 -131.765 95.7721 -135.43 95.8162Z" fill="#1A1A1A"/>
<path d="M-134.951 135.633C-138.616 135.678 -141.623 132.742 -141.667 129.077C-141.711 125.412 -138.776 122.405 -135.11 122.361C-131.445 122.317 -128.439 125.252 -128.394 128.917C-128.35 132.583 -131.286 135.589 -134.951 135.633Z" fill="#1A1A1A"/>
<path d="M-134.472 175.451C-138.137 175.495 -141.144 172.559 -141.188 168.894C-141.232 165.229 -138.297 162.222 -134.632 162.178C-130.967 162.134 -127.96 165.07 -127.916 168.735C-127.872 172.4 -130.807 175.407 -134.472 175.451Z" fill="#1A1A1A"/>
<path d="M-133.994 215.268C-137.659 215.312 -140.666 212.377 -140.71 208.712C-140.754 205.047 -137.818 202.04 -134.153 201.996C-130.488 201.952 -127.481 204.887 -127.437 208.552C-127.393 212.217 -130.329 215.224 -133.994 215.268Z" fill="#1A1A1A"/>
<path d="M-133.515 255.085C-137.18 255.13 -140.187 252.194 -140.231 248.529C-140.275 244.864 -137.34 241.857 -133.674 241.813C-130.009 241.769 -127.003 244.704 -126.959 248.369C-126.914 252.035 -129.85 255.041 -133.515 255.085Z" fill="#1A1A1A"/>
<path d="M-133.036 294.903C-136.701 294.947 -139.708 292.011 -139.752 288.346C-139.796 284.681 -136.861 281.674 -133.196 281.63C-129.531 281.586 -126.524 284.522 -126.48 288.187C-126.436 291.852 -129.371 294.859 -133.036 294.903Z" fill="#1A1A1A"/>
<path d="M-174.768 136.112C-178.433 136.156 -181.44 133.221 -181.484 129.556C-181.528 125.891 -178.593 122.884 -174.928 122.84C-171.263 122.796 -168.256 125.731 -168.212 129.396C-168.168 133.061 -171.103 136.068 -174.768 136.112Z" fill="#1A1A1A"/>
<path d="M-174.29 175.929C-177.955 175.974 -180.962 173.038 -181.006 169.373C-181.05 165.708 -178.114 162.701 -174.449 162.657C-170.784 162.613 -167.777 165.548 -167.733 169.213C-167.689 172.879 -170.624 175.885 -174.29 175.929Z" fill="#1A1A1A"/>
<path d="M-173.811 215.747C-177.476 215.791 -180.483 212.855 -180.527 209.19C-180.571 205.525 -177.636 202.518 -173.97 202.474C-170.305 202.43 -167.299 205.366 -167.254 209.031C-167.21 212.696 -170.146 215.703 -173.811 215.747Z" fill="#1A1A1A"/>
<path d="M-173.332 255.564C-176.997 255.608 -180.004 252.673 -180.048 249.008C-180.092 245.343 -177.157 242.336 -173.492 242.292C-169.827 242.248 -166.82 245.183 -166.776 248.848C-166.732 252.513 -169.667 255.52 -173.332 255.564Z" fill="#1A1A1A"/>
<path d="M102.527 14.1619C98.8623 14.206 95.8554 11.2705 95.8114 7.60545C95.7673 3.94037 98.7027 0.933513 102.368 0.889454C106.033 0.845394 109.04 3.78081 109.084 7.4459C109.128 11.111 106.192 14.1178 102.527 14.1619Z" fill="#1A1A1A"/>
</g>
</svg>
