<svg width="299" height="374" viewBox="0 0 299 374" fill="none" xmlns="http://www.w3.org/2000/svg">
<g opacity="0.1">
<path d="M288.508 358.397C286.737 359.447 284.949 360.471 283.144 361.468C284.281 359.684 286.248 358.477 288.508 358.397Z" fill="#1A1A1A"/>
<path d="M333.886 321.51C331.022 324.637 328.058 327.673 325.001 330.612C322.913 329.514 321.478 327.337 321.448 324.813C321.404 321.148 324.339 318.141 328.004 318.097C330.528 318.067 332.739 319.449 333.886 321.51Z" fill="#1A1A1A"/>
<path d="M363.727 278.924C362.774 280.752 361.794 282.564 360.786 284.359C360.812 282.098 361.971 280.103 363.727 278.924Z" fill="#1A1A1A"/>
<path d="M95.1722 363.727C93.3436 362.774 91.5316 361.794 89.7366 360.786C91.9977 360.812 93.9929 361.971 95.1722 363.727Z" fill="#1A1A1A"/>
<path d="M52.5863 333.887C54.6468 332.739 56.0291 330.528 55.9987 328.004C55.9547 324.339 52.9478 321.404 49.2828 321.448C46.7591 321.478 44.5814 322.913 43.4841 325.001C46.4233 328.058 49.459 331.022 52.5863 333.887Z" fill="#1A1A1A"/>
<path d="M15.699 288.508C15.6191 286.248 14.4122 284.281 12.6282 283.144C13.6248 284.949 14.6486 286.737 15.699 288.508Z" fill="#1A1A1A"/>
<path d="M10.3685 95.1723C12.1247 93.9929 13.284 91.9978 13.3095 89.7367C12.302 91.5316 11.3214 93.3437 10.3685 95.1723Z" fill="#1A1A1A"/>
<path d="M40.2093 52.5864C41.3565 54.6468 43.568 56.0292 46.0917 55.9988C49.7568 55.9548 52.6922 52.9479 52.6481 49.2828C52.6178 46.7592 51.1827 44.5815 49.0953 43.4842C46.0377 46.4234 43.0742 49.4591 40.2093 52.5864Z" fill="#1A1A1A"/>
<path d="M85.5882 15.6991C87.848 15.6192 89.8148 14.4123 90.9515 12.6283C89.1464 13.6249 87.3584 14.6487 85.5882 15.6991Z" fill="#1A1A1A"/>
<path d="M365.588 131.804C361.923 131.848 358.916 128.913 358.872 125.248C358.828 121.583 361.763 118.576 365.428 118.532C369.093 118.488 372.1 121.423 372.144 125.088C372.188 128.753 369.253 131.76 365.588 131.804Z" fill="#1A1A1A"/>
<path d="M366.066 171.622C362.401 171.666 359.394 168.73 359.35 165.065C359.306 161.4 362.242 158.393 365.907 158.349C369.572 158.305 372.579 161.24 372.623 164.906C372.667 168.571 369.731 171.577 366.066 171.622Z" fill="#1A1A1A"/>
<path d="M366.545 211.439C362.88 211.483 359.873 208.548 359.829 204.882C359.785 201.217 362.72 198.21 366.385 198.166C370.051 198.122 373.057 201.058 373.101 204.723C373.146 208.388 370.21 211.395 366.545 211.439Z" fill="#1A1A1A"/>
<path d="M367.024 251.256C363.359 251.3 360.352 248.365 360.308 244.7C360.264 241.035 363.199 238.028 366.864 237.984C370.529 237.94 373.536 240.875 373.58 244.54C373.624 248.205 370.689 251.212 367.024 251.256Z" fill="#1A1A1A"/>
<path d="M325.292 92.4655C321.627 92.5096 318.62 89.5742 318.576 85.9091C318.532 82.244 321.467 79.2372 325.132 79.1931C328.797 79.149 331.804 82.0845 331.848 85.7496C331.892 89.4146 328.957 92.4215 325.292 92.4655Z" fill="#1A1A1A"/>
<path d="M325.77 132.283C322.105 132.327 319.098 129.392 319.054 125.726C319.01 122.061 321.946 119.054 325.611 119.01C329.276 118.966 332.283 121.902 332.327 125.567C332.371 129.232 329.435 132.239 325.77 132.283Z" fill="#1A1A1A"/>
<path d="M326.249 172.1C322.584 172.144 319.577 169.209 319.533 165.544C319.489 161.879 322.424 158.872 326.089 158.828C329.755 158.784 332.761 161.719 332.805 165.384C332.85 169.049 329.914 172.056 326.249 172.1Z" fill="#1A1A1A"/>
<path d="M326.728 211.918C323.063 211.962 320.056 209.026 320.012 205.361C319.968 201.696 322.903 198.689 326.568 198.645C330.233 198.601 333.24 201.536 333.284 205.202C333.328 208.867 330.393 211.874 326.728 211.918Z" fill="#1A1A1A"/>
<path d="M327.206 251.735C323.541 251.779 320.534 248.843 320.49 245.178C320.446 241.513 323.382 238.506 327.047 238.462C330.712 238.418 333.719 241.354 333.763 245.019C333.807 248.684 330.871 251.691 327.206 251.735Z" fill="#1A1A1A"/>
<path d="M327.685 291.552C324.02 291.596 321.013 288.661 320.969 284.996C320.925 281.331 323.86 278.324 327.525 278.28C331.191 278.236 334.197 281.171 334.241 284.836C334.286 288.501 331.35 291.508 327.685 291.552Z" fill="#1A1A1A"/>
<path d="M284.996 53.1269C281.331 53.1709 278.324 50.2355 278.28 46.5704C278.236 42.9053 281.171 39.8985 284.836 39.8544C288.501 39.8104 291.508 42.7458 291.552 46.4109C291.596 50.076 288.661 53.0828 284.996 53.1269Z" fill="#1A1A1A"/>
<path d="M285.474 92.9442C281.809 92.9883 278.802 90.0529 278.758 86.3878C278.714 82.7227 281.65 79.7158 285.315 79.6718C288.98 79.6277 291.987 82.5631 292.031 86.2282C292.075 89.8933 289.139 92.9001 285.474 92.9442Z" fill="#1A1A1A"/>
<path d="M285.953 132.762C282.288 132.806 279.281 129.87 279.237 126.205C279.193 122.54 282.128 119.533 285.793 119.489C289.459 119.445 292.465 122.38 292.509 126.046C292.554 129.711 289.618 132.717 285.953 132.762Z" fill="#1A1A1A"/>
<path d="M286.432 172.579C282.767 172.623 279.76 169.688 279.716 166.022C279.672 162.357 282.607 159.351 286.272 159.306C289.937 159.262 292.944 162.198 292.988 165.863C293.032 169.528 290.097 172.535 286.432 172.579Z" fill="#1A1A1A"/>
<path d="M286.91 212.396C283.245 212.44 280.238 209.505 280.194 205.84C280.15 202.175 283.086 199.168 286.751 199.124C290.416 199.08 293.423 202.015 293.467 205.68C293.511 209.345 290.575 212.352 286.91 212.396Z" fill="#1A1A1A"/>
<path d="M287.389 252.214C283.724 252.258 280.717 249.322 280.673 245.657C280.629 241.992 283.564 238.985 287.229 238.941C290.895 238.897 293.901 241.832 293.945 245.497C293.99 249.163 291.054 252.169 287.389 252.214Z" fill="#1A1A1A"/>
<path d="M287.868 292.031C284.203 292.075 281.196 289.139 281.152 285.474C281.108 281.809 284.043 278.802 287.708 278.758C291.373 278.714 294.38 281.65 294.424 285.315C294.468 288.98 291.533 291.987 287.868 292.031Z" fill="#1A1A1A"/>
<path d="M288.346 331.848C284.681 331.892 281.674 328.957 281.63 325.292C281.586 321.627 284.522 318.62 288.187 318.576C291.852 318.532 294.859 321.467 294.903 325.132C294.947 328.797 292.011 331.804 288.346 331.848Z" fill="#1A1A1A"/>
<path d="M244.7 13.7882C241.035 13.8323 238.028 10.8968 237.984 7.23175C237.94 3.56667 240.875 0.559813 244.54 0.515754C248.205 0.471695 251.212 3.40712 251.256 7.0722C251.3 10.7373 248.365 13.7441 244.7 13.7882Z" fill="#1A1A1A"/>
<path d="M245.178 53.6055C241.513 53.6496 238.506 50.7142 238.462 47.0491C238.418 43.384 241.354 40.3771 245.019 40.3331C248.684 40.289 251.691 43.2245 251.735 46.8895C251.779 50.5546 248.843 53.5615 245.178 53.6055Z" fill="#1A1A1A"/>
<path d="M245.657 93.4229C241.992 93.4669 238.985 90.5315 238.941 86.8664C238.897 83.2013 241.832 80.1945 245.497 80.1504C249.163 80.1064 252.169 83.0418 252.214 86.7069C252.258 90.372 249.322 93.3788 245.657 93.4229Z" fill="#1A1A1A"/>
<path d="M246.136 133.24C242.471 133.284 239.464 130.349 239.42 126.684C239.376 123.019 242.311 120.012 245.976 119.968C249.641 119.924 252.648 122.859 252.692 126.524C252.736 130.189 249.801 133.196 246.136 133.24Z" fill="#1A1A1A"/>
<path d="M246.614 173.058C242.949 173.102 239.942 170.166 239.898 166.501C239.854 162.836 242.79 159.829 246.455 159.785C250.12 159.741 253.127 162.676 253.171 166.342C253.215 170.007 250.279 173.013 246.614 173.058Z" fill="#1A1A1A"/>
<path d="M247.093 212.875C243.428 212.919 240.421 209.983 240.377 206.318C240.333 202.653 243.268 199.646 246.933 199.602C250.599 199.558 253.605 202.494 253.649 206.159C253.694 209.824 250.758 212.831 247.093 212.875Z" fill="#1A1A1A"/>
<path d="M247.572 252.692C243.907 252.736 240.9 249.801 240.856 246.136C240.812 242.471 243.747 239.464 247.412 239.42C251.077 239.376 254.084 242.311 254.128 245.976C254.172 249.641 251.237 252.648 247.572 252.692Z" fill="#1A1A1A"/>
<path d="M248.05 292.509C244.385 292.554 241.378 289.618 241.334 285.953C241.29 282.288 244.226 279.281 247.891 279.237C251.556 279.193 254.563 282.128 254.607 285.794C254.651 289.459 251.715 292.465 248.05 292.509Z" fill="#1A1A1A"/>
<path d="M248.529 332.327C244.864 332.371 241.857 329.435 241.813 325.77C241.769 322.105 244.704 319.098 248.369 319.054C252.035 319.01 255.041 321.946 255.085 325.611C255.13 329.276 252.194 332.283 248.529 332.327Z" fill="#1A1A1A"/>
<path d="M249.008 372.144C245.343 372.188 242.336 369.253 242.292 365.588C242.248 361.923 245.183 358.916 248.848 358.872C252.513 358.828 255.52 361.763 255.564 365.428C255.608 369.093 252.673 372.1 249.008 372.144Z" fill="#1A1A1A"/>
<path d="M204.882 14.2669C201.217 14.3109 198.21 11.3755 198.166 7.71041C198.122 4.04533 201.058 1.03847 204.723 0.994413C208.388 0.950354 211.395 3.88577 211.439 7.55086C211.483 11.2159 208.547 14.2228 204.882 14.2669Z" fill="#1A1A1A"/>
<path d="M205.361 54.0842C201.696 54.1283 198.689 51.1928 198.645 47.5277C198.601 43.8627 201.536 40.8558 205.202 40.8117C208.867 40.7677 211.873 43.7031 211.917 47.3682C211.962 51.0333 209.026 54.0401 205.361 54.0842Z" fill="#1A1A1A"/>
<path d="M205.84 93.9015C202.175 93.9456 199.168 91.0102 199.124 87.3451C199.08 83.68 202.015 80.6731 205.68 80.6291C209.345 80.585 212.352 83.5204 212.396 87.1855C212.44 90.8506 209.505 93.8575 205.84 93.9015Z" fill="#1A1A1A"/>
<path d="M206.318 133.719C202.653 133.763 199.646 130.827 199.602 127.162C199.558 123.497 202.494 120.49 206.159 120.446C209.824 120.402 212.831 123.338 212.875 127.003C212.919 130.668 209.983 133.675 206.318 133.719Z" fill="#1A1A1A"/>
<path d="M206.797 173.536C203.132 173.58 200.125 170.645 200.081 166.98C200.037 163.315 202.972 160.308 206.637 160.264C210.303 160.22 213.309 163.155 213.353 166.82C213.398 170.485 210.462 173.492 206.797 173.536Z" fill="#1A1A1A"/>
<path d="M207.276 213.354C203.611 213.398 200.604 210.462 200.56 206.797C200.516 203.132 203.451 200.125 207.116 200.081C210.781 200.037 213.788 202.972 213.832 206.638C213.876 210.303 210.941 213.309 207.276 213.354Z" fill="#1A1A1A"/>
<path d="M207.754 253.171C204.089 253.215 201.082 250.279 201.038 246.614C200.994 242.949 203.93 239.942 207.595 239.898C211.26 239.854 214.267 242.79 214.311 246.455C214.355 250.12 211.419 253.127 207.754 253.171Z" fill="#1A1A1A"/>
<path d="M208.233 292.988C204.568 293.032 201.561 290.097 201.517 286.432C201.473 282.767 204.408 279.76 208.073 279.716C211.739 279.672 214.745 282.607 214.789 286.272C214.834 289.937 211.898 292.944 208.233 292.988Z" fill="#1A1A1A"/>
<path d="M208.712 332.805C205.047 332.85 202.04 329.914 201.996 326.249C201.952 322.584 204.887 319.577 208.552 319.533C212.217 319.489 215.224 322.424 215.268 326.09C215.312 329.755 212.377 332.761 208.712 332.805Z" fill="#1A1A1A"/>
<path d="M209.19 372.623C205.525 372.667 202.518 369.731 202.474 366.066C202.43 362.401 205.366 359.394 209.031 359.35C212.696 359.306 215.703 362.242 215.747 365.907C215.791 369.572 212.855 372.579 209.19 372.623Z" fill="#1A1A1A"/>
<path d="M165.065 14.7455C161.4 14.7896 158.393 11.8542 158.349 8.18907C158.305 4.52399 161.24 1.51713 164.906 1.47307C168.571 1.42901 171.577 4.36443 171.622 8.02952C171.666 11.6946 168.73 14.7015 165.065 14.7455Z" fill="#1A1A1A"/>
<path d="M165.544 54.5629C161.879 54.6069 158.872 51.6715 158.828 48.0064C158.784 44.3413 161.719 41.3345 165.384 41.2904C169.049 41.2463 172.056 44.1818 172.1 47.8469C172.144 51.5119 169.209 54.5188 165.544 54.5629Z" fill="#1A1A1A"/>
<path d="M166.022 94.3802C162.357 94.4242 159.35 91.4888 159.306 87.8237C159.262 84.1587 162.198 81.1518 165.863 81.1077C169.528 81.0637 172.535 83.9991 172.579 87.6642C172.623 91.3293 169.687 94.3361 166.022 94.3802Z" fill="#1A1A1A"/>
<path d="M166.501 134.198C162.836 134.242 159.829 131.306 159.785 127.641C159.741 123.976 162.676 120.969 166.341 120.925C170.007 120.881 173.013 123.816 173.057 127.482C173.102 131.147 170.166 134.153 166.501 134.198Z" fill="#1A1A1A"/>
<path d="M166.98 174.015C163.315 174.059 160.308 171.123 160.264 167.458C160.22 163.793 163.155 160.786 166.82 160.742C170.485 160.698 173.492 163.634 173.536 167.299C173.58 170.964 170.645 173.971 166.98 174.015Z" fill="#1A1A1A"/>
<path d="M167.458 213.832C163.793 213.876 160.786 210.941 160.742 207.276C160.698 203.611 163.634 200.604 167.299 200.56C170.964 200.516 173.971 203.451 174.015 207.116C174.059 210.781 171.123 213.788 167.458 213.832Z" fill="#1A1A1A"/>
<path d="M167.937 253.65C164.272 253.694 161.265 250.758 161.221 247.093C161.177 243.428 164.112 240.421 167.777 240.377C171.443 240.333 174.449 243.268 174.493 246.933C174.538 250.599 171.602 253.605 167.937 253.65Z" fill="#1A1A1A"/>
<path d="M168.416 293.467C164.751 293.511 161.744 290.575 161.7 286.91C161.656 283.245 164.591 280.238 168.256 280.194C171.921 280.15 174.928 283.086 174.972 286.751C175.016 290.416 172.081 293.423 168.416 293.467Z" fill="#1A1A1A"/>
<path d="M168.894 333.284C165.229 333.328 162.222 330.393 162.178 326.728C162.134 323.063 165.07 320.056 168.735 320.012C172.4 319.968 175.407 322.903 175.451 326.568C175.495 330.233 172.559 333.24 168.894 333.284Z" fill="#1A1A1A"/>
<path d="M169.373 373.101C165.708 373.146 162.701 370.21 162.657 366.545C162.613 362.88 165.548 359.873 169.213 359.829C172.879 359.785 175.885 362.72 175.929 366.385C175.973 370.051 173.038 373.057 169.373 373.101Z" fill="#1A1A1A"/>
<path d="M125.248 15.2242C121.583 15.2682 118.576 12.3328 118.532 8.66773C118.488 5.00265 121.423 1.99579 125.088 1.95173C128.753 1.90767 131.76 4.84309 131.804 8.50818C131.848 12.1733 128.913 15.1801 125.248 15.2242Z" fill="#1A1A1A"/>
<path d="M125.726 55.0415C122.061 55.0856 119.054 52.1502 119.01 48.4851C118.966 44.82 121.902 41.8131 125.567 41.7691C129.232 41.725 132.239 44.6604 132.283 48.3255C132.327 51.9906 129.391 54.9975 125.726 55.0415Z" fill="#1A1A1A"/>
<path d="M126.205 94.8588C122.54 94.9029 119.533 91.9675 119.489 88.3024C119.445 84.6373 122.38 81.6305 126.045 81.5864C129.711 81.5423 132.717 84.4778 132.761 88.1429C132.806 91.8079 129.87 94.8148 126.205 94.8588Z" fill="#1A1A1A"/>
<path d="M126.684 134.676C123.019 134.72 120.012 131.785 119.968 128.12C119.924 124.455 122.859 121.448 126.524 121.404C130.189 121.36 133.196 124.295 133.24 127.96C133.284 131.625 130.349 134.632 126.684 134.676Z" fill="#1A1A1A"/>
<path d="M127.162 174.494C123.497 174.538 120.49 171.602 120.446 167.937C120.402 164.272 123.338 161.265 127.003 161.221C130.668 161.177 133.675 164.112 133.719 167.778C133.763 171.443 130.827 174.449 127.162 174.494Z" fill="#1A1A1A"/>
<path d="M127.641 214.311C123.976 214.355 120.969 211.419 120.925 207.754C120.881 204.089 123.816 201.082 127.481 201.038C131.147 200.994 134.153 203.93 134.197 207.595C134.242 211.26 131.306 214.267 127.641 214.311Z" fill="#1A1A1A"/>
<path d="M128.12 254.128C124.455 254.172 121.448 251.237 121.404 247.572C121.36 243.907 124.295 240.9 127.96 240.856C131.625 240.812 134.632 243.747 134.676 247.412C134.72 251.077 131.785 254.084 128.12 254.128Z" fill="#1A1A1A"/>
<path d="M128.598 293.945C124.933 293.99 121.926 291.054 121.882 287.389C121.838 283.724 124.774 280.717 128.439 280.673C132.104 280.629 135.111 283.564 135.155 287.229C135.199 290.895 132.263 293.901 128.598 293.945Z" fill="#1A1A1A"/>
<path d="M129.077 333.763C125.412 333.807 122.405 330.871 122.361 327.206C122.317 323.541 125.252 320.534 128.917 320.49C132.583 320.446 135.589 323.382 135.633 327.047C135.678 330.712 132.742 333.719 129.077 333.763Z" fill="#1A1A1A"/>
<path d="M129.556 373.58C125.891 373.624 122.884 370.689 122.84 367.024C122.796 363.359 125.731 360.352 129.396 360.308C133.061 360.264 136.068 363.199 136.112 366.864C136.156 370.529 133.221 373.536 129.556 373.58Z" fill="#1A1A1A"/>
<path d="M85.909 55.5202C82.244 55.5642 79.2371 52.6288 79.1931 48.9637C79.149 45.2986 82.0844 42.2918 85.7495 42.2477C89.4146 42.2037 92.4214 45.1391 92.4655 48.8042C92.5095 52.4693 89.5741 55.4761 85.909 55.5202Z" fill="#1A1A1A"/>
<path d="M86.3877 95.3375C82.7226 95.3816 79.7158 92.4462 79.6717 88.7811C79.6277 85.116 82.5631 82.1091 86.2281 82.0651C89.8932 82.021 92.9001 84.9564 92.9441 88.6215C92.9882 92.2866 90.0528 95.2934 86.3877 95.3375Z" fill="#1A1A1A"/>
<path d="M86.8664 135.155C83.2013 135.199 80.1944 132.263 80.1504 128.598C80.1063 124.933 83.0417 121.926 86.7068 121.882C90.3719 121.838 93.3787 124.774 93.4228 128.439C93.4669 132.104 90.5314 135.111 86.8664 135.155Z" fill="#1A1A1A"/>
<path d="M87.345 174.972C83.6799 175.016 80.6731 172.081 80.629 168.416C80.585 164.751 83.5204 161.744 87.1855 161.7C90.8505 161.656 93.8574 164.591 93.9015 168.256C93.9455 171.921 91.0101 174.928 87.345 174.972Z" fill="#1A1A1A"/>
<path d="M87.8237 214.79C84.1586 214.834 81.1518 211.898 81.1077 208.233C81.0636 204.568 83.999 201.561 87.6641 201.517C91.3292 201.473 94.3361 204.408 94.3801 208.073C94.4242 211.739 91.4888 214.745 87.8237 214.79Z" fill="#1A1A1A"/>
<path d="M88.3023 254.607C84.6373 254.651 81.6304 251.715 81.5864 248.05C81.5423 244.385 84.4777 241.378 88.1428 241.334C91.8079 241.29 94.8147 244.226 94.8588 247.891C94.9028 251.556 91.9674 254.563 88.3023 254.607Z" fill="#1A1A1A"/>
<path d="M88.781 294.424C85.1159 294.468 82.1091 291.533 82.065 287.868C82.021 284.203 84.9564 281.196 88.6214 281.152C92.2865 281.108 95.2934 284.043 95.3374 287.708C95.3815 291.373 92.4461 294.38 88.781 294.424Z" fill="#1A1A1A"/>
<path d="M89.2597 334.241C85.5946 334.286 82.5877 331.35 82.5437 327.685C82.4996 324.02 85.435 321.013 89.1001 320.969C92.7652 320.925 95.772 323.86 95.8161 327.525C95.8601 331.191 92.9247 334.197 89.2597 334.241Z" fill="#1A1A1A"/>
<path d="M46.5704 95.8162C42.9053 95.8602 39.8984 92.9248 39.8544 89.2597C39.8103 85.5946 42.7457 82.5878 46.4108 82.5437C50.0759 82.4997 53.0827 85.4351 53.1268 89.1002C53.1708 92.7653 50.2354 95.7721 46.5704 95.8162Z" fill="#1A1A1A"/>
<path d="M47.049 135.633C43.3839 135.678 40.3771 132.742 40.333 129.077C40.289 125.412 43.2244 122.405 46.8895 122.361C50.5545 122.317 53.5614 125.252 53.6054 128.917C53.6495 132.583 50.7141 135.589 47.049 135.633Z" fill="#1A1A1A"/>
<path d="M47.5277 175.451C43.8626 175.495 40.8557 172.559 40.8117 168.894C40.7676 165.229 43.703 162.222 47.3681 162.178C51.0332 162.134 54.04 165.07 54.0841 168.735C54.1282 172.4 51.1928 175.407 47.5277 175.451Z" fill="#1A1A1A"/>
<path d="M48.0063 215.268C44.3413 215.312 41.3344 212.377 41.2903 208.712C41.2463 205.047 44.1817 202.04 47.8468 201.996C51.5119 201.952 54.5187 204.887 54.5628 208.552C54.6068 212.217 51.6714 215.224 48.0063 215.268Z" fill="#1A1A1A"/>
<path d="M48.485 255.085C44.8199 255.13 41.8131 252.194 41.769 248.529C41.7249 244.864 44.6604 241.857 48.3254 241.813C51.9905 241.769 54.9974 244.704 55.0414 248.369C55.0855 252.035 52.1501 255.041 48.485 255.085Z" fill="#1A1A1A"/>
<path d="M48.9637 294.903C45.2986 294.947 42.2917 292.011 42.2477 288.346C42.2036 284.681 45.139 281.674 48.8041 281.63C52.4692 281.586 55.476 284.522 55.5201 288.187C55.5641 291.852 52.6287 294.859 48.9637 294.903Z" fill="#1A1A1A"/>
<path d="M7.2317 136.112C3.56662 136.156 0.559745 133.221 0.515686 129.556C0.471627 125.891 3.40707 122.884 7.07215 122.84C10.7372 122.796 13.7441 125.731 13.7881 129.396C13.8322 133.061 10.8968 136.068 7.2317 136.112Z" fill="#1A1A1A"/>
<path d="M7.71036 175.929C4.04528 175.974 1.0384 173.038 0.994345 169.373C0.950286 165.708 3.88573 162.701 7.55081 162.657C11.2159 162.613 14.2227 165.548 14.2668 169.213C14.3109 172.879 11.3754 175.885 7.71036 175.929Z" fill="#1A1A1A"/>
<path d="M8.18902 215.747C4.52394 215.791 1.51706 212.855 1.473 209.19C1.42894 205.525 4.36439 202.518 8.02947 202.474C11.6945 202.43 14.7014 205.366 14.7455 209.031C14.7895 212.696 11.8541 215.703 8.18902 215.747Z" fill="#1A1A1A"/>
<path d="M8.66768 255.564C5.0026 255.608 1.99572 252.673 1.95166 249.008C1.9076 245.343 4.84305 242.336 8.50813 242.292C12.1732 242.248 15.1801 245.183 15.2241 248.848C15.2682 252.513 12.3328 255.52 8.66768 255.564Z" fill="#1A1A1A"/>
<path d="M284.527 14.1619C280.862 14.206 277.855 11.2705 277.811 7.60545C277.767 3.94037 280.703 0.933513 284.368 0.889454C288.033 0.845394 291.04 3.78081 291.084 7.4459C291.128 11.111 288.192 14.1178 284.527 14.1619Z" fill="#1A1A1A"/>
</g>
</svg>
