<svg width="53" height="53" viewBox="0 0 53 53" fill="none" xmlns="http://www.w3.org/2000/svg">
<rect width="53" height="53" rx="26.5" fill="url(#paint0_linear_28_8243)"/>
<path d="M44.0759 24.8948C44.704 24.2705 45.05 23.4401 45.05 22.5569C45.05 21.6737 44.704 20.8433 44.0759 20.2189L43.8263 19.9708C43.1983 19.3465 42.363 19.0025 41.4746 19.0025C41.4115 19.0025 41.3493 19.0043 41.2872 19.0079C41.3376 18.1005 41.0159 17.1769 40.3203 16.4854C39.6923 15.861 38.857 15.5171 37.9685 15.5171C37.8667 15.5171 37.7658 15.5215 37.6658 15.5305C37.7514 14.5873 37.4324 13.6136 36.7071 12.8934C36.079 12.269 35.2437 11.925 34.3553 11.925C33.4669 11.925 32.6316 12.269 32.0035 12.8934L27.0702 17.7977C26.6594 18.2062 26.3692 18.7033 26.2178 19.2452L20.6916 13.7515C19.8329 12.8979 18.6904 12.4276 17.4758 12.4276C16.2611 12.4276 15.1195 12.8979 14.2599 13.7515L8.61924 19.3608C7.76053 20.2145 7.28748 21.3503 7.28748 22.5578C7.28748 23.7653 7.76053 24.9011 8.61924 25.7548L13.6913 30.797C13.9337 31.038 14.2977 31.1097 14.614 30.9798C14.9303 30.8499 15.1366 30.5426 15.1366 30.2022V23.9068C15.1366 22.8749 15.9403 22.0203 16.9288 22.0024C17.4244 21.9935 17.8911 22.178 18.2435 22.522C18.5967 22.8659 18.7904 23.3264 18.7904 23.8181V34.3004C18.7904 35.3099 19.186 36.2594 19.9041 36.9733L22.7001 39.7529C23.5867 40.6343 24.7509 41.075 25.916 41.075C27.0801 41.075 28.2452 40.6343 29.1319 39.7529L39.3913 29.5537L44.0759 24.8966V24.8948ZM41.4755 20.6865C41.9116 20.6865 42.3216 20.8549 42.6297 21.1622L42.8784 21.4103C43.1866 21.7167 43.3569 22.1242 43.3569 22.5578C43.3569 22.9913 43.1866 23.3989 42.8784 23.7053L38.1938 28.3623C37.819 28.735 37.3207 28.9401 36.79 28.9401C36.2592 28.9401 35.761 28.735 35.3861 28.3623C35.0779 28.056 34.9076 27.6484 34.9076 27.2149C34.9076 26.7813 35.0779 26.3737 35.3861 26.0674L40.3194 21.1631C40.6276 20.8567 41.0376 20.6874 41.4737 20.6874L41.4755 20.6865ZM39.1237 17.6768C39.7608 18.3101 39.7608 19.3393 39.1237 19.9726L34.1904 24.8769C33.8822 25.1833 33.4723 25.3526 33.0361 25.3526C32.6 25.3526 32.1901 25.1842 31.8819 24.8769C31.5737 24.5706 31.4034 24.163 31.4034 23.7294C31.4034 23.2959 31.5737 22.8883 31.8819 22.582L36.8152 17.6777C37.1234 17.3713 37.5333 17.202 37.9695 17.202C38.4056 17.202 38.8155 17.3704 39.1237 17.6777V17.6768ZM28.2677 18.9891L33.201 14.0847C33.5092 13.7784 33.9192 13.6091 34.3553 13.6091C34.7914 13.6091 35.2014 13.7775 35.5096 14.0847C36.1466 14.718 36.1466 15.7473 35.5096 16.3806L30.5763 21.2849C30.2681 21.5913 29.8581 21.7606 29.422 21.7606C28.9859 21.7606 28.5759 21.5921 28.2677 21.2849C27.9596 20.9786 27.7893 20.571 27.7893 20.1374C27.7893 19.7039 27.9596 19.2963 28.2677 18.99V18.9891ZM27.9353 38.5624C26.8224 39.6687 25.0113 39.6687 23.8976 38.5624L21.1016 35.7829C20.7033 35.3869 20.4835 34.8602 20.4835 34.3004V23.8181C20.4835 22.8713 20.1096 21.9845 19.4293 21.3207C18.7499 20.6579 17.8506 20.3014 16.8982 20.3193C14.9933 20.3542 13.4435 21.963 13.4435 23.9059V28.1698L9.81675 24.5643C9.27792 24.0286 8.98057 23.3156 8.98057 22.5578C8.98057 21.8 9.27792 21.0869 9.81675 20.5513L15.4574 14.9438C15.9962 14.4081 16.7135 14.1125 17.4758 14.1125C18.2381 14.1125 18.9553 14.4081 19.4941 14.9438L27.0702 22.4754C27.6983 23.0997 28.5336 23.4437 29.422 23.4437C29.5229 23.4437 29.6238 23.4392 29.7239 23.4303C29.7148 23.5297 29.7103 23.6291 29.7103 23.7303C29.7103 24.6136 30.0563 25.4439 30.6844 26.0683C31.3124 26.6926 32.1477 27.0366 33.0361 27.0366C33.0983 27.0366 33.1605 27.0348 33.2218 27.0312C33.2182 27.0921 33.2164 27.154 33.2164 27.2158C33.2164 28.099 33.5624 28.9294 34.1904 29.5537C34.6959 30.0562 35.3221 30.3939 36.0051 30.5408L27.9353 38.5633V38.5624Z" fill="white"/>
<defs>
<linearGradient id="paint0_linear_28_8243" x1="53" y1="53.1288" x2="0" y2="0.12875" gradientUnits="userSpaceOnUse">
<stop stop-color="#FF1843" stop-opacity="0.9"/>
<stop offset="1" stop-color="#FF5E7C" stop-opacity="0.9"/>
</linearGradient>
</defs>
</svg>
